# xmcd
# 
# Track frame offsets:
#     150
#     15627
#     34927
#     46527
#     60325
#     75975
#     90877
#     105450
#     120577
#     136810
#     152752
#     167925
#     184725
#     198975
#     216000
#     230077
# 
# Disc length: 3268
# 
# Revision: 2
# Processed by: cddbd v1.5.2PL0 Copyright (c) Steve Scherf et al.
# Submitted via: fre:ac v1.0.27
# 
DISCID=bd0cc210
DTITLE=Truck Stop - StarCollection CD2
DYEAR=1997
DGENRE=Country and Western
TTITLE0=Du bist der absolute Wahnsinn (Live)
TTITLE1=Lass mich geh'n
TTITLE2=Freiheit
TTITLE3=Asphaltfieber
TTITLE4=Ich steh' auf Jeans und Country-Music
TTITLE5=Black Jack
TTITLE6=Louisiana Ladies
TTITLE7=Trucker bleibt Trucker
TTITLE8=Silverado
TTITLE9=Freunde bleiben
TTITLE10=Banditos der Liebe
TTITLE11=In der Hitze der Nacht
TTITLE12=Dann kommt Country-Musik
TTITLE13=Vater und Sohn
TTITLE14=Das letzte Paradies
TTITLE15=Herz aus Gold
EXTD=
EXTT0=
EXTT1=
EXTT2=
EXTT3=
EXTT4=
EXTT5=
EXTT6=
EXTT7=
EXTT8=
EXTT9=
EXTT10=
EXTT11=
EXTT12=
EXTT13=
EXTT14=
EXTT15=
PLAYORDER=
